PathFileType	4	(X/Y/Z)	C:/Users/beibeiliu/ov580/test_trc/capture2\sequence.36_training_dense_left.trc
DataRate	CameraRate	NumFrames	NumMarkers	Units	OrigDataRate	OrigDataStartFrame	OrigNumFrames
120	120	21	19	mm	120	328	374
Frame#	Time	ThumbCMC			ThumbMCP			ThumbIP			ThumbTip			IndexMCP			IndexPIP			IndexTip			MiddleMCP			MiddlePIP			MiddleTip			RingMCP			RingPIP			RingTip			PinkyMCP			PinkyPIP			PinkyTip			BackHand1			BackHand2			BackHand3	
		X0	Y0	Z0	X1	Y1	Z1	X2	Y2	Z2	X3	Y3	Z3	X4	Y4	Z4	X5	Y5	Z5	X6	Y6	Z6	X7	Y7	Z7	X8	Y8	Z8	X9	Y9	Z9	X10	Y10	Z10	X11	Y11	Z11	X12	Y12	Z12	X13	Y13	Z13	X14	Y14	Z14	X15	Y15	Z15	X16	Y16	Z16	X17	Y17	Z17	X18	Y18	Z18	
327	2.725	-144.823	53.8182	5.43444	-127.525	68.0865	-13.9428	-120.201	71.9343	-41.3837	-113.945	72.4807	-62.3517	-148.037	35.6017	-65.235	-118.362	34.9352	-79.8751	-98.4799	40.0372	-56.1799	-138.491	18.6249	-71.2883	-106.638	18.8693	-72.6876	-98.0117	26.8903	-39.5241	-130.108	-1.66069	-64.1328	-101.139	4.84614	-61.942	-101.794	18.0018	-27.8348	-129.145	-13.8843	-51.5267	-100.525	-9.59513	-52.4915	-97.3307	8.80445	-23.3915	-164.665	-5.73082	-14.335	-167.955	-1.20032	16.0336	-170.571	27.5646	-3.73477	
328	2.73333	-146.404	57.9744	6.06189	-130.167	66.4465	-13.2637	-124.919	74.419	-39.8002	-117.711	75.5187	-59.7652	-149.105	39.5002	-65.0044	-117.486	36.7969	-80.7968	-98.6746	39.0881	-57.2403	-140.989	18.4926	-68.9109	-109.991	17.1768	-74.8799	-99.2715	29.307	-40.0402	-133.407	-0.846062	-61.1528	-103.58	3.46348	-62.7081	-101.23	17.2358	-31.0183	-131.007	-19.1655	-49.3342	-101.707	-8.13361	-52.0442	-97.4951	9.41325	-23.6116	-166.226	-5.25998	-17.7483	-170.187	-2.5104	12.7328	-173.109	31.6594	-4.03203	
329	2.74167	-146.845	53.8481	9.10416	-132.911	68.7011	-14.0424	-128.12	80.6403	-37.623	-121.534	82.8982	-60.1142	-147.879	37.9257	-68.1803	-120.558	39.5975	-81.5598	-99.4676	38.2265	-55.3456	-142.045	20.0195	-68.4124	-108.741	18.3855	-74.1919	-99.45	26.4463	-36.9536	-134.304	-3.43176	-61.918	-101.48	5.38016	-60.5205	-99.2762	14.7847	-29.6794	-129.816	-15.5014	-52.0052	-103.74	-6.3941	-53.9514	-94.5133	5.88621	-26.0289	-167.628	-5.35558	-16.8084	-169.153	-2.28801	12.1231	-171.482	28.5667	-2.49331	
330	2.75	-147.639	57.6504	6.80192	-134.306	68.1418	-12.2468	-130.681	78.53	-37.4176	-124.811	89.4378	-54.8915	-149.101	38.5578	-64.4338	-120.515	35.2083	-81.4396	-98.4867	41.3783	-58.8244	-140.057	18.8414	-70.6441	-107.996	19.7548	-74.1366	-98.996	23.4129	-37.9236	-135.551	0.482712	-61.0275	-102.814	8.09283	-60.8009	-100.575	18.9933	-30.8672	-130.642	-17.879	-52.8031	-101.7	-7.21265	-51.6057	-94.8347	8.20261	-27.5079	-169	-0.151976	-14.4658	-172.219	-0.234938	13.2195	-171.55	29.751	-2.18629	
331	2.75833	-148.122	53.8851	11.7136	-135.863	71.2277	-13.04	-131.746	83.1484	-31.612	-127.96	91.5365	-57.0468	-148.161	38.0475	-67.7879	-122.592	33.8381	-81.0236	-99.218	37.9182	-53.5647	-143.114	20.9599	-67.6071	-109.784	18.9347	-74.689	-100.136	27.237	-35.9718	-133.984	1.1362	-62.3036	-104.456	5.89395	-63.1196	-100.032	14.9206	-30.5882	-133.757	-15.5742	-49.332	-101.426	-9.21573	-51.5573	-93.7655	7.4611	-24.0587	-168.092	0.642373	-12.821	-171.88	0.828389	17.8584	-173.162	29.9812	-0.0611681	
332	2.76667	-148.763	55.085	7.54818	-135.769	68.0842	-9.65321	-132.688	82.1047	-31.6423	-129.56	92.4075	-49.6852	-148.575	39.2228	-64.2999	-119.078	35.6967	-79.8687	-100.242	37.0565	-53.0008	-139.695	19.3368	-70.4415	-110.343	22.4986	-75.2443	-99.8529	23.5625	-38.073	-133.797	-3.203	-62.0016	-102.32	3.15666	-60.5873	-100.661	16.9946	-30.4623	-134.502	-14.0552	-48.6185	-101.299	-6.94119	-51.4857	-93.7811	4.2242	-25.7341	-167.771	-1.74567	-14.4096	-173.284	-3.33308	14.1578	-173.208	28.0554	-0.328144	
333	2.775	-150.402	57.2868	7.29545	-137.627	72.3458	-8.85058	-134.185	84.9902	-31.8367	-131.27	95.3317	-49.9482	-148.755	36.5522	-63.5081	-123.168	37.4599	-82.0996	-99.7195	41.0724	-56.778	-140.589	19.4154	-69.3931	-108.452	20.2034	-73.0245	-99.9484	25.3371	-37.7118	-134.563	-1.37869	-61.2075	-103.563	4.20814	-60.4019	-102.225	14.5515	-26.0206	-130.735	-16.0804	-51.0266	-105.921	-8.447	-54.5987	-93.4619	7.01844	-28.0929	-166.551	-2.55573	-17.4534	-171.286	1.25244	16.4759	-173.909	30.5582	-2.9437	
334	2.78333	-149.74	53.0115	8.87492	-137.78	69.8793	-10.4029	-135.151	83.1303	-34.041	-130.618	93.9829	-47.9322	-147.6	34.5441	-65.315	-122.012	36.5349	-80.9229	-99.3223	39.6253	-52.9703	-141.808	18.8195	-66.3719	-109.511	19.827	-73.8368	-100.924	28.8545	-37.0056	-133.176	1.95418	-64.0606	-101.414	3.69443	-58.5494	-100.612	16.3013	-30.5938	-133.689	-15.5686	-48.7255	-103.107	-9.39051	-51.8712	-94.9812	7.13358	-25.1763	-167.874	-1.99777	-14.2808	-172.317	0.940428	15.1312	-172.74	32.1112	-2.46778	
335	2.79167	-151.156	57.3137	7.28851	-137.654	66.3658	-10.7759	-134.978	81.3324	-32.8083	-131.437	93.3009	-52.0607	-148.697	37.1497	-64.2253	-121.478	36.2229	-80.8342	-99.4799	37.1733	-55.7722	-139.226	19.1937	-69.7613	-107.516	22.3371	-72.4388	-100.527	24.9527	-36.3726	-135.525	0.988086	-61.4401	-103.119	2.53936	-61.0564	-101.294	17.5316	-27.3463	-131.317	-18.6184	-49.5373	-103.549	-5.90974	-51.3655	-95.5491	6.87768	-26.4079	-168.353	-1.93785	-15.8294	-173.222	0.434036	17.0848	-171.679	25.8242	-2.32475	
336	2.8	-149.589	51.8791	9.61078	-137.051	67.7333	-8.62997	-133.925	80.3804	-35.1287	-130.352	94.4011	-54.169	-148.064	37.8607	-65.6353	-123.079	35.7594	-80.8097	-98.7793	41.0197	-54.5253	-140.753	16.9397	-68.7166	-108.513	22.5582	-71.8218	-98.8787	26.6075	-37.7494	-133.914	-3.70764	-60.4426	-102.589	5.53573	-59.0295	-101.421	18.5188	-28.0955	-131.908	-15.7136	-51.4373	-101.279	-7.30258	-50.507	-96.7044	8.70849	-27.0729	-168.478	-1.59677	-12.4552	-172.619	1.35235	17.4073	-173.474	26.7691	-3.81442	
337	2.80833	-148.764	55.5293	7.56976	-135.861	70.6749	-12.0431	-132.585	79.042	-31.88	-128.523	91.816	-56.1484	-148.139	37.0903	-66.2326	-120.373	34.4667	-78.9356	-99.0016	41.6489	-53.6905	-140.568	16.5908	-69.8159	-109.39	22.3145	-73.7978	-100.164	26.0528	-38.0554	-136.216	0.473649	-60.2549	-101.813	3.95779	-58.8053	-99.5728	14.6421	-29.2289	-132.167	-18.4569	-49.6642	-102.001	-10.1727	-50.5214	-95.7748	5.40893	-25.008	-166.771	-5.56307	-15.6563	-172.413	-0.895158	12.9525	-173.473	28.483	-1.34328	
338	2.81667	-147.454	54.7196	7.98575	-134.695	66.1545	-15.634	-130.764	77.267	-34.9596	-127.325	84.5889	-61.1312	-147.1	37.393	-66.7587	-120.604	35.7784	-80.1514	-99.6762	42.5354	-51.7314	-141.866	20.7968	-68.9449	-107.46	21.1577	-70.8576	-101.404	26.9912	-37.1974	-132.27	0.0371569	-65.1704	-100.875	4.78125	-58.759	-102.191	17.7922	-28.6208	-131.181	-14.5973	-50.861	-103.466	-4.3806	-51.8541	-95.7099	5.79251	-24.1692	-168.727	-4.41858	-15.4396	-170.602	0.878918	15.002	-170.426	30.5596	-4.48802	
339	2.825	-146.856	53.1358	5.56984	-133.315	65.3628	-16.2116	-129.266	76.3905	-41.6636	-126.741	72.5554	-67.9809	-148.468	35.8593	-65.804	-118.423	40.8703	-79.5141	-101.287	41.9228	-50.0156	-138.874	18.3875	-71.2527	-106.954	19.9801	-69.1563	-104.627	25.2137	-34.8355	-134.104	-3.76063	-61.6452	-105.718	6.09718	-63.2245	-101.804	18.2242	-29.4402	-131.286	-15.0532	-51.0668	-101.47	-4.74614	-50.6979	-100.348	12.323	-24.5776	-166.707	-0.726294	-16.403	-170.8	0.982566	13.2902	-173.212	27.5779	-5.03082	
340	2.83333	-146.699	51.5285	5.19461	-133.289	63.6613	-21.0356	-130.239	67.247	-43.3441	-127.224	66.513	-70.9644	-147.768	39.2408	-67.8089	-118.318	36.4304	-78.7904	-104.43	41.3607	-50.255	-139.7	19.39	-72.0516	-107.462	19.8273	-69.9403	-105.456	25.4547	-36.372	-131.5	1.07648	-64.8286	-101.863	5.35661	-59.2588	-101.742	18.6543	-30.6789	-130.756	-14.9736	-51.04	-101.81	-4.46627	-51.6714	-98.743	10.8368	-21.1363	-165.151	-7.02563	-17.341	-167.4	-2.43971	13.2816	-173.02	26.7962	-4.14032	
341	2.84167	-146.04	55.1272	4.43401	-133.996	61.5257	-24.1617	-129.01	65.1406	-47.6349	-125.851	61.2448	-71.5187	-146.385	34.1476	-68.9165	-116.092	37.9944	-77.117	-106.385	40.4642	-43.0893	-139.252	15.2145	-71.2026	-108.331	18.3133	-71.3515	-108.062	26.5106	-33.1128	-131.264	1.64098	-64.6522	-104.632	7.23532	-61.2166	-103.925	18.4852	-29.693	-126.384	-18.0143	-54.1747	-103.088	-4.66073	-52.3339	-98.4253	10.5341	-25.0448	-165.136	-2.48724	-15.4212	-167.204	-1.95762	13.8031	-172.467	28.3474	-4.61173	
342	2.85	-145.929	55.6901	1.66587	-132.887	62.0564	-25.3049	-127.18	66.2747	-49.8881	-124.158	59.4949	-74.6586	-144.697	33.3785	-70.8383	-115.08	37.6669	-75.5164	-107.685	39.5262	-42.8858	-141.042	16.3552	-69.1702	-107.898	18.1609	-71.4446	-106.263	27.8255	-35.3133	-130.687	-4.79578	-63.4122	-101.964	9.29457	-58.8314	-106.395	18.7318	-26.8792	-130.626	-17.461	-49.9318	-100.107	-6.5607	-49.6004	-99.7543	7.74209	-22.0181	-166.876	-7.76722	-14.18	-169.945	-0.102993	11.6988	-173.058	24.7898	-3.23879	
343	2.85833	-145.749	51.1117	0.558335	-130.48	59.8577	-20.4772	-127.897	63.9697	-51.9081	-123.414	54.2867	-74.3075	-145.427	35.6741	-69.181	-114.295	34.1172	-75.451	-106.681	41.9149	-45.0377	-138.38	14.9893	-71.6519	-105.648	21.4635	-68.6052	-105.94	27.1758	-35.0808	-131.636	-0.459319	-62.9409	-100.856	7.63995	-57.359	-104.064	14.8063	-25.0821	-129.141	-14.9573	-53.8413	-101.527	-7.19632	-49.9903	-99.5202	7.75091	-24.174	-165.88	-6.71335	-16.1777	-167.992	-2.36502	11.9166	-172.959	26.4083	-4.06407	
344	2.86667	-144.217	55.3903	4.02229	-132.062	58.4346	-24.1165	-126.654	62.8981	-47.9628	-122.528	57.4176	-70.4393	-146.402	33.0966	-67.9632	-116.439	37.9368	-77.9107	-106.786	38.9292	-44.4222	-137.673	14.0291	-69.8158	-105.76	20.4057	-68.1918	-108.261	27.8991	-30.9213	-130.754	-3.63263	-62.246	-102.649	6.95081	-59.4605	-106.331	19.8891	-25.9262	-131.246	-16.151	-50.5051	-102.851	-3.55721	-49.5785	-100.09	9.73201	-22.2011	-167.69	-4.52586	-14.9	-168.854	-2.11888	13.8646	-172.405	27.6736	-6.89226	
345	2.875	-145.564	55.4709	2.03616	-130.724	58.1255	-21.0232	-126.626	62.5138	-48.8641	-123.961	57.3045	-75.8779	-146.642	33.3275	-67.7455	-113.853	37.0816	-75.1133	-105.709	41.8163	-45.854	-139.014	11.9081	-68.4114	-107.168	21.788	-69.7302	-106.481	25.4579	-32.7807	-129.951	-4.75063	-63.5556	-103.044	6.0032	-59.9865	-104.016	16.5601	-27.1758	-129.511	-17.1766	-51.4036	-100.945	-5.10064	-48.3043	-102.48	7.95611	-19.5144	-166.588	-6.08505	-13.4529	-167.73	-0.289522	14.9324	-170.206	26.3183	-3.07132	
346	2.88333	-146.048	54.2595	4.1475	-131.57	59.5415	-22.6434	-127.427	60.532	-49.493	-123.417	57.3277	-75.7625	-144.438	35.2798	-69.7315	-113.702	37.4881	-75.1542	-105.714	42.2267	-42.9878	-138.874	17.2425	-70.7008	-107.966	20.0303	-72.0082	-107.531	26.6042	-31.183	-133.109	-3.12163	-60.8759	-102.059	3.91165	-59.2594	-106.235	19.4	-27.4284	-129.371	-15.4795	-50.2731	-101.729	-5.61058	-48.9299	-100.668	9.98057	-21.2085	-164.959	-4.66477	-16.1251	-166.946	-5.2487	12.3373	-172.681	27.6569	-4.22815	
347	2.89167	-146.669	52.3313	3.26506	-131.893	62.3675	-23.6386	-127.07	65.6076	-49.539	-124.025	57.9277	-71.8885	-146.954	33.067	-67.5882	-116.827	34.7936	-76.91	-105.274	43.0865	-47.1938	-140.335	17.8572	-70.3612	-105.658	18.6033	-67.8815	-108.384	28.6016	-32.3919	-130.212	-3.58822	-63.832	-102.109	3.8096	-59.3703	-106.39	19.6162	-26.5996	-128.62	-16.2577	-50.7338	-102.474	-2.16307	-49.4818	-103.864	13.0275	-21.2646	-166.341	-3.37766	-17.874	-168.401	-0.475909	12.9871	-171.387	29.9151	-6.60043	
